<?xml version="1.0" encoding="UTF-8" standalone="no"?>
<!-- Created with Inkscape (http://www.inkscape.org/) -->

<svg
   width="512"
   height="512"
   viewBox="0 0 512 512"
   version="1.1"
   id="svg1"
   xml:space="preserve"
   sodipodi:docname="ammo.svg"
   inkscape:version="1.3.2 (091e20ef0f, 2023-11-25, custom)"
   xmlns:inkscape="http://www.inkscape.org/namespaces/inkscape"
   xmlns:sodipodi="http://sodipodi.sourceforge.net/DTD/sodipodi-0.dtd"
   xmlns="http://www.w3.org/2000/svg"
   xmlns:svg="http://www.w3.org/2000/svg"><sodipodi:namedview
     id="namedview1"
     pagecolor="#000000"
     bordercolor="#000000"
     borderopacity="0.25"
     inkscape:showpageshadow="2"
     inkscape:pageopacity="0.0"
     inkscape:pagecheckerboard="0"
     inkscape:deskcolor="#d1d1d1"
     inkscape:zoom="0.98291368"
     inkscape:cx="208.05489"
     inkscape:cy="233.99817"
     inkscape:window-width="1536"
     inkscape:window-height="795"
     inkscape:window-x="0"
     inkscape:window-y="0"
     inkscape:window-maximized="1"
     inkscape:current-layer="svg1" /><defs
     id="defs1" /><g
     id="layer3"><path
       d="m 478.23904,241.93992 c 14.26914,-24.61924 24.8961,-45.81002 23.61544,-47.09069 -1.28067,-1.28065 -20.85256,8.6765 -43.49315,22.12705 -22.64059,13.45053 -55.08655,39.4928 -72.10223,57.87174 -12.79648,13.8217 -31.05364,32.57241 -31.05364,32.57241 l -6.14802,-13.98699 42.76123,-43.16259 -6.76523,-6.3977 -39.68409,38.69182 -4.15391,-12.0224 c 0,0 13.20973,-15.11584 30.63377,-33.87302 17.42411,-18.75717 40.40584,-48.22225 51.07061,-65.47801 10.66476,-17.25573 19.39049,-33.48609 19.39049,-36.06753 0,-2.58144 -13.75936,3.0718 -30.5763,12.56269 -16.81695,9.49091 -40.47657,26.49492 -52.57692,37.78662 -12.10038,11.29176 -34.53204,31.82253 -34.53204,31.82253 l -6.66065,-13.94247 42.54345,-41.58629 -7.05289,-7.58233 -41.01297,39.9359 -8.03947,-12.63517 c 0,0 11.68139,-12.80796 24.13507,-26.43209 12.45367,-13.62414 30.18898,-38.70321 39.41178,-55.731268 L 384.71804,68.36211 347.20063,88.984256 c -20.6346,11.342184 -40.40238,27.757744 -49.81053,36.022704 -9.32443,8.19141 -21.84874,19.78811 -21.84874,19.78811 l -11.6993,-7.19032 23.27124,-24.03122 -7.82551,-6.83663 -25.97695,26.24707 -12.44438,-4.90407 11.03011,-12.62557 c 0,0 37.82436,-44.491623 49.31858,-65.360002 11.49423,-20.868378 19.70515,-37.942465 18.24653,-37.942465 -1.45863,0 -13.42082,5.465612 -26.58262,12.145839 -13.16179,6.680167 -35.44059,19.915002 -49.50848,29.410679 C 229.3027,63.204058 172.36911,115.79735 116.85152,170.58229 L 15.910421,270.19129 37.11677,291.90857 58.323176,313.62586 211.06,158.77127 l -6.74521,23.39822 -82.48782,82.23669 7.42585,5.80861 68.7056,-68.53097 -12.9925,29.31875 -105.651626,102.42854 19.016506,17.0755 16.83034,14.70632 40.25056,-41.51994 5.54877,14.47906 -13.16308,13.54717 8.48844,6.8467 13.27727,-12.74954 c 0,0 16.81219,3.97306 16.75186,5.3378 l -46.57014,40.00793 42.30192,38.02056 98.04621,-92.97293 7.57721,5.4527 -46.18485,45.90077 6.28646,5.41486 46.76468,-45.16225 8.70391,5.95685 -101.87384,95.95342 38.355,40.50558 c 2.68227,2.00599 91.14989,-82.68711 108.72522,-99.94116 42.87308,-42.08935 109.14447,-112.726 129.7923,-148.35059 z m -242.20256,-87.21136 49.96404,-0.40788 27.63757,83.8038 c 15.20064,46.09213 31.14782,97.11969 31.14782,97.11969 0,0 -5.75647,0.89416 -24.34988,0.89416 -24.55696,0 -26.40681,-1.06551 -29.60411,-17.05196 -3.26966,-16.34825 -4.64195,-17.05199 -33.25136,-17.05199 -28.6094,0 -29.98169,0.70374 -33.25135,17.05199 -3.11148,15.55741 -5.4156,17.05196 -26.28846,17.05196 -13.41911,0 -24.08162,-1.19745 -24.08162,-1.19745 z m 35.81125,107.20282 -14.90729,-46.57982 -13.54309,46.753 z"
       style="fill:#ffffff;fill-opacity:1;stroke-width:5.68399"
       id="path1-3"
       sodipodi:nodetypes="ssssccccccsssssccccccsscsscccccccsssssccccccccccccccccccccccccccccssccscssssscccccc" /></g></svg>
