<?xml version="1.0" encoding="UTF-8" standalone="no"?>
<!-- Created with Inkscape (http://www.inkscape.org/) -->

<svg
   width="512"
   height="512"
   viewBox="0 0 512 512"
   version="1.1"
   id="svg1"
   xml:space="preserve"
   sodipodi:docname="commander.svg"
   inkscape:version="1.3.2 (091e20ef0f, 2023-11-25, custom)"
   xmlns:inkscape="http://www.inkscape.org/namespaces/inkscape"
   xmlns:sodipodi="http://sodipodi.sourceforge.net/DTD/sodipodi-0.dtd"
   xmlns="http://www.w3.org/2000/svg"
   xmlns:svg="http://www.w3.org/2000/svg"><sodipodi:namedview
     id="namedview1"
     pagecolor="#000000"
     bordercolor="#000000"
     borderopacity="0.25"
     inkscape:showpageshadow="2"
     inkscape:pageopacity="0.0"
     inkscape:pagecheckerboard="0"
     inkscape:deskcolor="#d1d1d1"
     inkscape:zoom="1.15625"
     inkscape:cx="255.56757"
     inkscape:cy="256"
     inkscape:window-width="1536"
     inkscape:window-height="795"
     inkscape:window-x="0"
     inkscape:window-y="0"
     inkscape:window-maximized="1"
     inkscape:current-layer="layer5" /><defs
     id="defs1" /><g
     id="layer5"><path
       d="m 295.61067,489.40073 c 10.87091,-11.2321 24.15004,-30.93492 29.50928,-43.784 5.35917,-12.84914 9.74399,-24.48509 9.74399,-25.8577 0,-1.37261 -18.37502,-8.70241 -40.83337,-16.28846 -22.45833,-7.58605 -43.66579,-12.04225 -47.12766,-9.90272 -3.46187,2.1396 -6.29431,8.02534 -6.29431,13.07957 0,5.05416 -6.71148,12.24735 -14.9144,15.98483 -10.82617,4.93276 -18.5771,4.83523 -28.27661,-0.35566 -9.20561,-4.92673 -13.3622,-5.06283 -13.3622,-0.43735 0,3.69249 7.01706,20.56112 15.59341,37.4858 8.57636,16.92468 21.93002,35.21047 29.67479,40.63512 7.74472,5.42458 21.38045,9.86294 30.30159,9.86294 10.05623,0 23.73141,-7.76073 35.98549,-20.42199 z m -140.62879,-86.6832 c 1.55503,-1.57268 0.16338,-18.41152 -3.09233,-37.41969 -5.21754,-30.46151 -9.77114,-38.04366 -38.39549,-63.93152 l -32.475871,-29.37129 -14.50018,16.80391 c -7.975071,9.24211 -19.191962,29.04183 -24.926458,43.99934 -7.55023,19.6939 -8.810425,31.79013 -4.568368,43.85231 3.221837,9.16118 12.880057,20.36726 21.462761,24.90239 9.608894,5.07734 30.602263,7.43455 54.636746,6.13476 21.46748,-1.16091 40.30417,-3.39752 41.85919,-4.97021 z m 305.77687,-2.97369 c 10.1464,-5.24688 20.22311,-16.61244 22.39268,-25.25673 2.16957,-8.64428 0.26329,-24.85193 -4.23634,-36.01692 -4.49956,-11.16505 -15.05233,-29.48992 -23.45054,-40.72202 -8.39822,-11.2321 -18.46846,-20.306 -22.3783,-20.1643 -3.90983,0.14201 -19.02198,11.03705 -33.58261,24.21181 -22.99611,20.80744 -27.24012,28.82166 -32.3076,61.00829 -4.18751,26.59786 -3.80968,38.3569 1.33905,41.67073 3.94503,2.53906 22.1585,4.6598 40.47426,4.71277 18.31576,0.0503 41.603,-4.19675 51.7494,-9.44363 z M 354.47056,332.62152 c 3.72083,-28.68442 5.07383,-79.01628 3.00662,-111.84856 -2.06721,-32.83228 -6.62552,-69.95689 -10.12962,-82.49914 l -6.3711,-22.80401 -41.58722,12.69387 c -40.43786,12.34305 -42.56287,12.38653 -76.88961,1.57369 -19.41635,-6.11605 -39.18886,-12.60779 -43.93895,-14.42598 -6.33849,-2.42619 -5.78182,1.05108 2.09196,13.06801 7.01405,10.70477 9.17494,21.3756 6.24128,30.81993 -2.46805,7.94529 -9.77164,21.95163 -16.23034,31.12519 -9.23689,13.11972 -11.74296,28.06711 -11.74296,70.04059 v 53.36135 l 23.10683,20.28803 c 12.70876,11.15845 32.41159,24.17587 43.784,28.9276 11.37248,4.75166 29.25102,8.63944 39.73008,8.63944 10.4791,0 19.05289,2.59203 19.05289,5.76007 0,3.16799 12.01755,9.82254 26.70568,14.78779 21.80422,7.37089 27.59577,7.5244 31.5555,0.83667 2.66743,-4.50509 7.89414,-31.66012 11.61496,-60.34454 z M 223.1285,348.96521 c -11.34206,-5.81103 -26.56373,-18.91001 -33.82592,-29.10882 -7.26219,-10.1988 -14.58922,-30.83287 -16.28223,-45.85347 -1.69308,-15.02053 -1.17713,-37.44401 1.14645,-49.82992 2.32365,-12.38591 12.56594,-32.01992 22.76073,-43.63112 12.19733,-13.89198 28.22721,-23.55158 46.87589,-28.24738 15.58701,-3.92486 36.08985,-5.44507 45.56195,-3.37837 9.47203,2.06677 24.99803,6.6986 34.50211,10.293 14.75769,5.5813 17.28015,10.09305 17.28015,30.90772 0,13.4048 -1.32674,24.37242 -2.94837,24.37242 -1.62157,0 -14.26392,-5.89806 -28.09413,-13.10671 -17.81627,-9.28642 -30.72555,-11.8812 -44.28856,-8.90229 -12.65743,2.78003 -22.53608,10.76647 -29.1589,23.57358 -6.76402,13.08019 -8.97098,28.6415 -6.7972,47.92734 2.22556,19.74524 7.74421,32.22264 17.88282,40.4324 10.83164,8.7709 20.97496,11.02763 38.81258,8.63511 13.28184,-1.78148 29.10034,-7.72014 35.15228,-13.19707 6.05189,-5.47692 12.90161,-9.95807 15.22149,-9.95807 2.31988,0 4.21799,11.21117 4.21799,24.9137 0,19.00471 -3.18068,26.61589 -13.41053,32.09074 -7.37579,3.94742 -29.29016,8.40463 -48.6986,9.90492 -25.08887,1.93934 -41.24832,-0.32612 -55.91,-7.83771 z m -25.52925,11.15946 c -5.72111,-4.57333 -15.76854,-11.2588 -22.32758,-14.85666 -10.89196,-5.97459 -11.57274,-4.77736 -7.85462,13.81325 2.23901,11.19521 4.07095,24.45801 4.07095,29.4729 0,6.70658 4.82827,5.25247 18.25664,-5.49823 16.59309,-13.28448 17.3088,-15.37387 7.85461,-22.93126 z M 422.81713,259.51801 c -0.0126,-2.30159 -9.65816,-4.38652 -21.43995,-4.63316 -20.2321,-0.42352 -21.54527,0.84975 -23.65112,22.93139 l -2.22964,23.37985 23.66959,-18.7467 c 13.0183,-10.31065 23.66124,-20.62979 23.65112,-22.93138 z M 137.06111,221.95367 c -2.02291,-2.02291 -12.77732,5.51469 -23.89864,16.7503 l -20.220602,20.42834 21.992922,19.8811 21.99292,19.88109 1.90578,-36.6314 c 1.04812,-20.14721 0.25072,-38.28646 -1.77238,-40.30943 z m 6.39234,-32.99082 c 1.88215,-3.0454 -1.33805,-12.80189 -7.15593,-21.68119 -8.48582,-12.951 -9.18557,-19.20032 -3.53772,-31.5959 3.8722,-8.4985 12.04935,-15.49514 18.17149,-15.54805 9.48491,-0.0817 9.73714,-0.9971 1.70564,-6.18749 -5.18404,-3.35021 -27.22698,-6.13458 -48.98426,-6.18749 -33.69478,-0.0817 -41.844915,2.19006 -54.98229,15.32743 -8.482982,8.48299 -15.423569,21.29826 -15.423569,28.47838 0,7.18019 4.169291,23.03331 9.26505,35.22926 5.095758,12.19595 15.699486,30.06947 23.563839,39.71896 l 14.298787,17.5445 29.828433,-24.78068 c 16.40564,-13.62932 31.36837,-27.27234 33.25053,-30.31773 z m 336.1416,-16.15789 c 5.20485,-18.51596 5.39034,-29.54635 0.64597,-38.41125 -3.66057,-6.83993 -14.79188,-15.80631 -24.73619,-19.9254 -9.94438,-4.11908 -34.79449,-6.62766 -55.22246,-5.57457 l -37.14182,1.91464 2.10943,26.68733 c 1.16022,14.67808 4.19342,34.4717 6.74045,43.98584 3.84323,14.35572 8.13927,17.33356 25.25353,17.50466 12.86095,0.12882 23.92257,4.71924 29.39077,12.19746 4.82254,6.59524 8.84429,16.39924 8.93729,21.78675 0.10682,6.17982 6.91501,1.67756 18.44527,-12.19746 10.05189,-12.0961 21.56192,-33.68171 25.57776,-47.968 z m -184.5633,-59.98197 c 20.1797,-7.53207 37.63353,-14.366217 38.78633,-15.186992 C 334.97082,96.815159 330.4379,83.891053 323.74482,68.915699 317.05175,53.940345 303.70538,33.911709 294.08631,24.407627 283.8897,14.332986 269.67676,7.1274783 260.00095,7.1274783 c -9.12782,0 -22.93264,4.4383587 -30.67736,9.8629427 -7.74477,5.424647 -21.09843,23.710438 -29.67479,40.63512 -8.57635,16.924681 -15.59341,33.145525 -15.59341,36.046391 0,2.900865 16.25904,11.290538 36.13122,18.643718 19.87217,7.35323 36.58653,13.55674 37.14302,13.78572 0.5561,0.22873 17.52236,-5.74637 37.70212,-13.27838 z"
       style="fill:#ffffff;stroke-width:6.28369"
       id="path1-6" /></g></svg>
