<?xml version="1.0" encoding="UTF-8" standalone="no"?>
<!-- Created with Inkscape (http://www.inkscape.org/) -->

<svg
   width="512"
   height="512"
   viewBox="0 0 512 512"
   version="1.1"
   id="svg1"
   xml:space="preserve"
   sodipodi:docname="heavy.svg"
   inkscape:version="1.3.2 (091e20ef0f, 2023-11-25, custom)"
   xmlns:inkscape="http://www.inkscape.org/namespaces/inkscape"
   xmlns:sodipodi="http://sodipodi.sourceforge.net/DTD/sodipodi-0.dtd"
   xmlns="http://www.w3.org/2000/svg"
   xmlns:svg="http://www.w3.org/2000/svg"><sodipodi:namedview
     id="namedview1"
     pagecolor="#ffffff"
     bordercolor="#000000"
     borderopacity="0.25"
     inkscape:showpageshadow="2"
     inkscape:pageopacity="0.0"
     inkscape:pagecheckerboard="0"
     inkscape:deskcolor="#d1d1d1"
     inkscape:zoom="4.6835937"
     inkscape:cx="264.43369"
     inkscape:cy="427.34279"
     inkscape:window-width="3440"
     inkscape:window-height="1405"
     inkscape:window-x="0"
     inkscape:window-y="0"
     inkscape:window-maximized="1"
     inkscape:current-layer="svg1" /><defs
     id="defs1" /><g
     id="layer2"
     style="fill:#ffffff;fill-opacity:1"><path
       d="m 209.48163,495.22711 c 0,-6.28999 5.14636,-11.43635 11.43636,-11.43635 6.29,0 11.43636,5.14636 11.43636,11.43635 0,7.98731 8.04776,11.43637 26.68484,11.43637 17.16484,0 25.34735,-2.92569 26.53294,-9.62801 0.10168,-0.57483 0.1519,-1.17743 0.1519,-1.80836 0,-6.28999 3.43091,-11.43635 7.62424,-11.43635 4.19334,0 7.62423,5.14636 7.62423,11.43635 0,9.60205 16.5427,11.43637 103.13912,11.43637 H 507.25074 L 384.00065,337.30649 508.19302,472.35439 257.12886,2.398684 11.320997,460.33836 133.89596,338.91882 11.250181,506.10065 c 0,0 20.998743,0.56283 98.666339,0.56283 83.41948,0 99.56511,-1.85453 99.56511,-11.43637 z M 156.11194,346.55443 V 224.56661 h 30.49696 30.49697 l -0.004,43.83937 -0.004,38.7151 76.25185,-0.15956 V 265.7641 224.56661 h 34.30907 34.30909 v 121.98782 121.98784 h -34.31054 -34.30907 v -53.36968 -53.36967 h -76.2424 v 53.36967 53.36968 H 186.6089 156.11194 Z"
       style="fill:#ffffff;stroke-width:7.62424;fill-opacity:1"
       id="path1-9"
       sodipodi:nodetypes="ssssssssscccccccssccccccccccccccccccccccc" /></g></svg>
