<?xml version="1.0" encoding="UTF-8" standalone="no"?>
<!-- Created with Inkscape (http://www.inkscape.org/) -->

<svg
   width="512"
   height="512"
   viewBox="0 0 512 512"
   version="1.1"
   id="svg1"
   xml:space="preserve"
   sodipodi:docname="medic.svg"
   inkscape:version="1.3.2 (091e20ef0f, 2023-11-25, custom)"
   xmlns:inkscape="http://www.inkscape.org/namespaces/inkscape"
   xmlns:sodipodi="http://sodipodi.sourceforge.net/DTD/sodipodi-0.dtd"
   xmlns="http://www.w3.org/2000/svg"
   xmlns:svg="http://www.w3.org/2000/svg"><sodipodi:namedview
     id="namedview1"
     pagecolor="#ffffff"
     bordercolor="#000000"
     borderopacity="0.25"
     inkscape:showpageshadow="2"
     inkscape:pageopacity="0.0"
     inkscape:pagecheckerboard="0"
     inkscape:deskcolor="#d1d1d1"
     inkscape:zoom="1.3460793"
     inkscape:cx="251.47107"
     inkscape:cy="274.12947"
     inkscape:window-width="1536"
     inkscape:window-height="795"
     inkscape:window-x="0"
     inkscape:window-y="0"
     inkscape:window-maximized="1"
     inkscape:current-layer="svg1" /><defs
     id="defs1" /><g
     id="layer4"><path
       d="m 362.00579,449.36965 c 0,-33.95848 3.17256,-67.67069 7.05014,-74.91603 6.24623,-11.6711 14.78938,-13.17337 74.91603,-13.17337 h 67.86589 V 252.31148 143.34271 h -62.46131 c -48.5635,0 -65.23252,-2.50792 -74.91603,-11.27139 -10.27766,-9.30116 -12.45472,-21.80117 -12.45472,-71.510751 V 0.32120081 H 256.44229 150.8788 V 59.377237 c 0,45.394823 -2.60736,61.937103 -11.27139,71.510753 -9.38773,10.37335 -21.90743,12.45472 -74.916035,12.45472 H 1.0467328 v 108.96877 108.96877 l 62.9975722,0.21658 c 41.559465,0.14302 67.053455,3.29542 74.916035,9.26405 9.90097,7.51584 11.91846,20.16065 11.91846,74.69938 v 65.65205 h 105.56349 105.5635 z m -134.50833,9.55834 c -6.00472,-2.42299 -8.51318,-23.27247 -8.51318,-70.75935 0,-57.04563 1.55968,-66.72567 10.21582,-63.40403 7.95792,3.05378 10.21582,16.55406 10.21582,61.08122 0,56.19022 0.28468,57.161 16.76124,57.161 16.36765,0 16.80741,-1.38629 18.72901,-59.04269 1.08226,-32.47344 5.03251,-60.05943 8.77832,-61.30215 4.28063,-1.4202 6.32516,21.78129 5.50387,62.45763 -0.71871,35.59445 -3.19816,67.77756 -5.50987,71.51805 -2.3117,3.74042 -13.98273,6.55883 -25.93552,6.26311 -11.95278,-0.29558 -25.56326,-2.08348 -30.24551,-3.97279 z M 144.06825,252.31148 V 143.34271 h 32.95944 32.95944 l 22.72428,51.3185 22.72422,51.3185 16.59431,-35.99477 c 9.12688,-19.7971 19.23796,-42.89044 22.46908,-51.3185 5.01407,-13.07877 10.8883,-15.32373 40.09602,-15.32373 h 34.2213 V 252.31148 361.28025 H 338.16887 307.5214 l -0.31737,-62.99757 -0.31737,-62.99757 -15.3821,37.45801 c -13.42059,32.68137 -18.0267,37.7205 -36.12117,39.5161 -19.31192,1.91649 -21.94999,-0.6613 -38.33665,-37.45802 l -17.59757,-39.51609 -0.44813,62.99757 -0.44813,62.99757 h -27.2422 -27.24219 z m -95.34768,0 v -34.05274 h 41.430814 c 30.099016,0 37.479216,0.26968 37.479216,0.26968 l 0.0719,19.46298 -61.088498,0.52121 0.394344,28.9329 61.466034,0.35819 0.63677,18.40423 c 0,0 -8.86076,0.15629 -38.959776,0.15629 H 48.72057 Z m 333.71687,23.83692 c 0,-7.7186 8.32398,-10.21582 34.05274,-10.21582 30.77033,0 34.05383,-1.47708 34.06377,-15.32374 0.007,-13.70098 -3.35045,-15.32373 -31.73137,-15.32373 -19.3128,0 -32.87363,-3.33356 -34.63129,-8.51319 -2.10201,-6.19419 8.39686,-8.51318 38.54191,-8.51318 h 41.43081 v 34.05274 34.05274 h -40.86329 c -31.78258,0 -40.86328,-2.27016 -40.86328,-10.21582 z M 227.12493,146.14069 c -5.00181,-11.84287 -7.9787,-38.63481 -6.81055,-61.294932 l 2.07517,-40.255992 32.35011,-2.075787 c 22.95263,-1.472781 32.48706,0.505342 32.82159,6.810548 0.25949,4.887454 0.50398,27.876187 0.54349,51.085923 0.0409,23.2098 -3.14416,47.72777 -7.07494,54.48438 -5.44054,9.35177 -7.1963,-0.31669 -7.35396,-40.49695 -0.20227,-51.463085 -0.62521,-52.781744 -16.94703,-52.781744 -16.16838,0 -16.80775,1.801935 -18.72901,52.781744 -1.89871,50.38314 -2.39288,51.82568 -10.87481,31.74281 z"
       style="fill:#ffffff;stroke-width:6.81055"
       id="path1-2"
       sodipodi:nodetypes="ssscccssscccssscccccscccsssssssssscsccccccssscccccccsscccccccccsccccccsccsscssscccsscccsccscscsc" /></g></svg>
