<?xml version="1.0" encoding="UTF-8" standalone="no"?>
<!-- Created with Inkscape (http://www.inkscape.org/) -->

<svg
   width="512"
   height="512"
   viewBox="0 0 512 512"
   version="1.1"
   id="svg1"
   xml:space="preserve"
   sodipodi:docname="scout.svg"
   inkscape:version="1.3.2 (091e20ef0f, 2023-11-25, custom)"
   xmlns:inkscape="http://www.inkscape.org/namespaces/inkscape"
   xmlns:sodipodi="http://sodipodi.sourceforge.net/DTD/sodipodi-0.dtd"
   xmlns="http://www.w3.org/2000/svg"
   xmlns:svg="http://www.w3.org/2000/svg"><sodipodi:namedview
     id="namedview1"
     pagecolor="#ffffff"
     bordercolor="#000000"
     borderopacity="0.25"
     inkscape:showpageshadow="2"
     inkscape:pageopacity="0.0"
     inkscape:pagecheckerboard="0"
     inkscape:deskcolor="#d1d1d1"
     inkscape:zoom="1.15625"
     inkscape:cx="255.56757"
     inkscape:cy="256"
     inkscape:window-width="1536"
     inkscape:window-height="795"
     inkscape:window-x="0"
     inkscape:window-y="0"
     inkscape:window-maximized="1"
     inkscape:current-layer="svg1" /><defs
     id="defs1" /><g
     id="layer1"
     style="fill:#ffffff"><path
       d="m 200.44416,471.13695 c 14.03551,-20.66824 25.51915,-39.91883 25.51915,-42.7791 0,-2.86021 7.21355,-15.81612 16.03015,-28.79093 8.81659,-12.97474 18.77203,-23.59046 22.12319,-23.59046 3.35115,0 6.09304,3.91834 6.09304,8.70737 0,4.7891 -4.26662,12.24841 -9.48137,16.57627 -5.21475,4.32787 -9.48136,10.36497 -9.48136,13.41576 0,3.05085 8.17559,5.54698 18.168,5.54698 9.99241,0 29.92072,-4.14658 44.28512,-9.21463 14.36446,-5.0681 37.5074,-18.36818 51.42889,-29.55575 14.40289,-11.57447 32.09334,-34.6762 41.0471,-53.60303 8.65453,-18.29404 15.73547,-38.98497 15.73547,-45.97976 0,-11.02524 -4.77065,-12.97012 -35.84589,-14.6135 -20.6714,-1.09314 -36.90052,-5.09453 -38.33733,-9.45216 -1.65728,-5.02658 8.03584,-8.201 28.95141,-9.48137 l 31.44287,-1.92484 -31.20785,-47.33585 c -17.16437,-26.03469 -34.68379,-47.36776 -38.93213,-47.40682 -4.24835,-0.0379 -8.35758,-2.17446 -9.13157,-4.7453 -0.77406,-2.5709 0.24146,-8.97083 2.25644,-14.22205 2.0151,-5.25128 6.14032,-9.54773 9.16709,-9.54773 3.02683,0 25.54141,29.8663 50.03241,66.36956 l 44.5291,66.36955 h 38.15713 c 28.86627,0 36.99091,-1.92383 33.36745,-7.90113 C 503.7263,243.6324 478.35171,205.94397 449.97271,164.22596 421.59366,122.50795 385.54822,69.192467 369.87173,45.7472 L 341.36898,3.1192963 323.51494,29.944924 c -9.81979,14.754016 -26.94744,43.837978 -38.06156,64.630865 -11.11412,20.792951 -24.64301,40.603251 -30.06427,44.022801 -5.42119,3.41961 -11.7026,4.37161 -13.95865,2.11555 -2.25613,-2.25606 3.63389,-14.24424 13.08883,-26.6403 l 17.19085,-22.538345 h -15.40525 c -8.47287,0 -30.31307,4.427165 -48.53372,9.838115 -19.33921,5.74312 -43.91504,19.55576 -59.04306,33.18478 -14.25308,12.84068 -32.57222,38.36091 -40.70932,56.71165 -8.137029,18.35081 -14.794591,39.17397 -14.794591,46.27374 0,11.79248 3.415504,12.76932 39.499111,11.29661 32.32792,-1.31936 39.85985,0.26168 41.48635,8.70693 1.60728,8.34606 -4.5783,10.6836 -32.35345,12.22653 l -34.34069,1.90759 30.92379,47.40683 c 23.01747,35.28617 34.1192,47.02188 43.42162,45.90112 6.8738,-0.82816 12.49783,0.0702 12.49783,1.99577 0,1.92579 -2.94447,9.00331 -6.54328,15.72775 -3.59887,6.72444 -9.99879,12.12559 -14.22205,12.00252 -4.22331,-0.12325 -26.16743,-29.98437 -48.76468,-66.35849 l -41.085917,-66.1348 -39.137879,-0.0127 -39.1378762,-0.0126 48.6192452,71.14501 c 26.740548,39.12972 64.219747,94.59571 83.287027,123.25775 19.06728,28.66198 35.31664,52.11275 36.10972,52.11275 0.79302,0 12.9255,-16.9104 26.96109,-37.57864 z m -1.34472,-115.14898 c -15.35311,-5.60746 -17.3825,-9.58306 -17.3825,-34.05283 v -27.70417 l 20.54296,12.01896 c 11.29863,6.61041 27.65398,12.64568 36.34523,13.41171 8.69126,0.76603 22.2022,0.95035 30.02433,0.40959 9.75873,-0.6745 14.22205,-5.01267 14.22205,-13.82326 0,-7.0621 -3.55551,-14.03267 -7.90114,-15.49015 -4.34563,-1.45754 -20.31686,-5.83255 -35.4916,-9.72232 -15.1748,-3.8897 -34.37456,-13.85632 -42.66614,-22.1479 -10.32072,-10.32072 -15.07569,-22.2752 -15.07569,-37.90176 0,-12.55434 3.07335,-28.56868 6.82968,-35.58742 3.75633,-7.01874 16.46484,-16.7872 28.24107,-21.70765 11.7763,-4.92045 35.53964,-8.94624 52.80748,-8.94624 17.26784,0 38.69225,2.774 47.60985,6.16447 13.69767,5.2078 16.21377,10.11238 16.21377,31.60455 0,13.99204 -0.82077,25.44009 -1.82396,25.44009 -1.00319,0 -12.9822,-5.68882 -26.62014,-12.64182 -13.63793,-6.953 -29.65094,-12.64182 -35.58457,-12.64182 -5.93357,0 -15.28757,1.72649 -20.78663,3.83673 -5.49913,2.11017 -9.99836,9.08751 -9.99836,15.50513 0,8.09936 7.25034,13.68199 23.70342,18.25125 13.03688,3.62049 27.04066,6.59865 31.11955,6.61799 4.07894,0.019 15.8572,7.13789 26.174,15.8189 10.31674,8.68101 20.5508,22.92759 22.74226,31.6591 2.37034,9.44426 -0.0379,23.64849 -5.93786,35.06317 -5.45729,10.55326 -19.0286,24.7401 -30.15846,31.52636 -13.98071,8.52457 -30.98257,12.19171 -55.00108,11.86327 -19.12076,-0.26168 -42.58714,-3.33225 -52.14752,-6.82399 z m 26.86387,-55.86243 c 0,-3.4765 4.4345,-6.32091 9.85443,-6.32091 5.41993,0 8.09645,2.84441 5.94785,6.32091 -2.1486,3.4765 -6.5831,6.32091 -9.85443,6.32091 -3.27132,0 -5.94785,-2.84441 -5.94785,-6.32091 z M 276.5306,217.9537 c 0,-3.4765 4.4345,-6.32091 9.85442,-6.32091 5.41993,0 8.09646,2.84441 5.94785,6.32091 -2.1486,3.4765 -6.5831,6.32091 -9.85442,6.32091 -3.27133,0 -5.94785,-2.84441 -5.94785,-6.32091 z"
       style="fill:#ffffff;stroke-width:6.32091"
       id="path1-26" /></g><g
     id="layer5"
     style="display:none"><path
       d="m 295.61067,489.40073 c 10.87091,-11.2321 24.15004,-30.93492 29.50928,-43.784 5.35917,-12.84914 9.74399,-24.48509 9.74399,-25.8577 0,-1.37261 -18.37502,-8.70241 -40.83337,-16.28846 -22.45833,-7.58605 -43.66579,-12.04225 -47.12766,-9.90272 -3.46187,2.1396 -6.29431,8.02534 -6.29431,13.07957 0,5.05416 -6.71148,12.24735 -14.9144,15.98483 -10.82617,4.93276 -18.5771,4.83523 -28.27661,-0.35566 -9.20561,-4.92673 -13.3622,-5.06283 -13.3622,-0.43735 0,3.69249 7.01706,20.56112 15.59341,37.4858 8.57636,16.92468 21.93002,35.21047 29.67479,40.63512 7.74472,5.42458 21.38045,9.86294 30.30159,9.86294 10.05623,0 23.73141,-7.76073 35.98549,-20.42199 z m -140.62879,-86.6832 c 1.55503,-1.57268 0.16338,-18.41152 -3.09233,-37.41969 -5.21754,-30.46151 -9.77114,-38.04366 -38.39549,-63.93152 l -32.475871,-29.37129 -14.50018,16.80391 c -7.975071,9.24211 -19.191962,29.04183 -24.926458,43.99934 -7.55023,19.6939 -8.810425,31.79013 -4.568368,43.85231 3.221837,9.16118 12.880057,20.36726 21.462761,24.90239 9.608894,5.07734 30.602263,7.43455 54.636746,6.13476 21.46748,-1.16091 40.30417,-3.39752 41.85919,-4.97021 z m 305.77687,-2.97369 c 10.1464,-5.24688 20.22311,-16.61244 22.39268,-25.25673 2.16957,-8.64428 0.26329,-24.85193 -4.23634,-36.01692 -4.49956,-11.16505 -15.05233,-29.48992 -23.45054,-40.72202 -8.39822,-11.2321 -18.46846,-20.306 -22.3783,-20.1643 -3.90983,0.14201 -19.02198,11.03705 -33.58261,24.21181 -22.99611,20.80744 -27.24012,28.82166 -32.3076,61.00829 -4.18751,26.59786 -3.80968,38.3569 1.33905,41.67073 3.94503,2.53906 22.1585,4.6598 40.47426,4.71277 18.31576,0.0503 41.603,-4.19675 51.7494,-9.44363 z M 354.47056,332.62152 c 3.72083,-28.68442 5.07383,-79.01628 3.00662,-111.84856 -2.06721,-32.83228 -6.62552,-69.95689 -10.12962,-82.49914 l -6.3711,-22.80401 -41.58722,12.69387 c -40.43786,12.34305 -42.56287,12.38653 -76.88961,1.57369 -19.41635,-6.11605 -39.18886,-12.60779 -43.93895,-14.42598 -6.33849,-2.42619 -5.78182,1.05108 2.09196,13.06801 7.01405,10.70477 9.17494,21.3756 6.24128,30.81993 -2.46805,7.94529 -9.77164,21.95163 -16.23034,31.12519 -9.23689,13.11972 -11.74296,28.06711 -11.74296,70.04059 v 53.36135 l 23.10683,20.28803 c 12.70876,11.15845 32.41159,24.17587 43.784,28.9276 11.37248,4.75166 29.25102,8.63944 39.73008,8.63944 10.4791,0 19.05289,2.59203 19.05289,5.76007 0,3.16799 12.01755,9.82254 26.70568,14.78779 21.80422,7.37089 27.59577,7.5244 31.5555,0.83667 2.66743,-4.50509 7.89414,-31.66012 11.61496,-60.34454 z M 223.1285,348.96521 c -11.34206,-5.81103 -26.56373,-18.91001 -33.82592,-29.10882 -7.26219,-10.1988 -14.58922,-30.83287 -16.28223,-45.85347 -1.69308,-15.02053 -1.17713,-37.44401 1.14645,-49.82992 2.32365,-12.38591 12.56594,-32.01992 22.76073,-43.63112 12.19733,-13.89198 28.22721,-23.55158 46.87589,-28.24738 15.58701,-3.92486 36.08985,-5.44507 45.56195,-3.37837 9.47203,2.06677 24.99803,6.6986 34.50211,10.293 14.75769,5.5813 17.28015,10.09305 17.28015,30.90772 0,13.4048 -1.32674,24.37242 -2.94837,24.37242 -1.62157,0 -14.26392,-5.89806 -28.09413,-13.10671 -17.81627,-9.28642 -30.72555,-11.8812 -44.28856,-8.90229 -12.65743,2.78003 -22.53608,10.76647 -29.1589,23.57358 -6.76402,13.08019 -8.97098,28.6415 -6.7972,47.92734 2.22556,19.74524 7.74421,32.22264 17.88282,40.4324 10.83164,8.7709 20.97496,11.02763 38.81258,8.63511 13.28184,-1.78148 29.10034,-7.72014 35.15228,-13.19707 6.05189,-5.47692 12.90161,-9.95807 15.22149,-9.95807 2.31988,0 4.21799,11.21117 4.21799,24.9137 0,19.00471 -3.18068,26.61589 -13.41053,32.09074 -7.37579,3.94742 -29.29016,8.40463 -48.6986,9.90492 -25.08887,1.93934 -41.24832,-0.32612 -55.91,-7.83771 z m -25.52925,11.15946 c -5.72111,-4.57333 -15.76854,-11.2588 -22.32758,-14.85666 -10.89196,-5.97459 -11.57274,-4.77736 -7.85462,13.81325 2.23901,11.19521 4.07095,24.45801 4.07095,29.4729 0,6.70658 4.82827,5.25247 18.25664,-5.49823 16.59309,-13.28448 17.3088,-15.37387 7.85461,-22.93126 z M 422.81713,259.51801 c -0.0126,-2.30159 -9.65816,-4.38652 -21.43995,-4.63316 -20.2321,-0.42352 -21.54527,0.84975 -23.65112,22.93139 l -2.22964,23.37985 23.66959,-18.7467 c 13.0183,-10.31065 23.66124,-20.62979 23.65112,-22.93138 z M 137.06111,221.95367 c -2.02291,-2.02291 -12.77732,5.51469 -23.89864,16.7503 l -20.220602,20.42834 21.992922,19.8811 21.99292,19.88109 1.90578,-36.6314 c 1.04812,-20.14721 0.25072,-38.28646 -1.77238,-40.30943 z m 6.39234,-32.99082 c 1.88215,-3.0454 -1.33805,-12.80189 -7.15593,-21.68119 -8.48582,-12.951 -9.18557,-19.20032 -3.53772,-31.5959 3.8722,-8.4985 12.04935,-15.49514 18.17149,-15.54805 9.48491,-0.0817 9.73714,-0.9971 1.70564,-6.18749 -5.18404,-3.35021 -27.22698,-6.13458 -48.98426,-6.18749 -33.69478,-0.0817 -41.844915,2.19006 -54.98229,15.32743 -8.482982,8.48299 -15.423569,21.29826 -15.423569,28.47838 0,7.18019 4.169291,23.03331 9.26505,35.22926 5.095758,12.19595 15.699486,30.06947 23.563839,39.71896 l 14.298787,17.5445 29.828433,-24.78068 c 16.40564,-13.62932 31.36837,-27.27234 33.25053,-30.31773 z m 336.1416,-16.15789 c 5.20485,-18.51596 5.39034,-29.54635 0.64597,-38.41125 -3.66057,-6.83993 -14.79188,-15.80631 -24.73619,-19.9254 -9.94438,-4.11908 -34.79449,-6.62766 -55.22246,-5.57457 l -37.14182,1.91464 2.10943,26.68733 c 1.16022,14.67808 4.19342,34.4717 6.74045,43.98584 3.84323,14.35572 8.13927,17.33356 25.25353,17.50466 12.86095,0.12882 23.92257,4.71924 29.39077,12.19746 4.82254,6.59524 8.84429,16.39924 8.93729,21.78675 0.10682,6.17982 6.91501,1.67756 18.44527,-12.19746 10.05189,-12.0961 21.56192,-33.68171 25.57776,-47.968 z m -184.5633,-59.98197 c 20.1797,-7.53207 37.63353,-14.366217 38.78633,-15.186992 C 334.97082,96.815159 330.4379,83.891053 323.74482,68.915699 317.05175,53.940345 303.70538,33.911709 294.08631,24.407627 283.8897,14.332986 269.67676,7.1274783 260.00095,7.1274783 c -9.12782,0 -22.93264,4.4383587 -30.67736,9.8629427 -7.74477,5.424647 -21.09843,23.710438 -29.67479,40.63512 -8.57635,16.924681 -15.59341,33.145525 -15.59341,36.046391 0,2.900865 16.25904,11.290538 36.13122,18.643718 19.87217,7.35323 36.58653,13.55674 37.14302,13.78572 0.5561,0.22873 17.52236,-5.74637 37.70212,-13.27838 z"
       style="fill:#000000;stroke-width:6.28369"
       id="path1-6" /></g><g
     id="layer4"
     style="display:none"><path
       d="m 362.00579,449.36965 c 0,-33.95848 3.17256,-67.67069 7.05014,-74.91603 6.24623,-11.6711 14.78938,-13.17337 74.91603,-13.17337 h 67.86589 V 252.31148 143.34271 h -62.46131 c -48.5635,0 -65.23252,-2.50792 -74.91603,-11.27139 -10.27766,-9.30116 -12.45472,-21.80117 -12.45472,-71.510751 V 0.32120081 H 256.44229 150.8788 V 59.377237 c 0,45.394823 -2.60736,61.937103 -11.27139,71.510753 -9.38773,10.37335 -21.90743,12.45472 -74.916035,12.45472 H 1.0467328 v 108.96877 108.96877 l 62.9975722,0.21658 c 41.559465,0.14302 67.053455,3.29542 74.916035,9.26405 9.90097,7.51584 11.91846,20.16065 11.91846,74.69938 v 65.65205 h 105.56349 105.5635 z m -134.50833,9.55834 c -6.00472,-2.42299 -8.51318,-23.27247 -8.51318,-70.75935 0,-57.04563 1.55968,-66.72567 10.21582,-63.40403 7.95792,3.05378 10.21582,16.55406 10.21582,61.08122 0,56.19022 0.28468,57.161 16.76124,57.161 16.36765,0 16.80741,-1.38629 18.72901,-59.04269 1.08226,-32.47344 5.03251,-60.05943 8.77832,-61.30215 4.28063,-1.4202 6.32516,21.78129 5.50387,62.45763 -0.71871,35.59445 -3.19816,67.77756 -5.50987,71.51805 -2.3117,3.74042 -13.98273,6.55883 -25.93552,6.26311 -11.95278,-0.29558 -25.56326,-2.08348 -30.24551,-3.97279 z M 144.06825,252.31148 V 143.34271 h 32.95944 32.95944 l 22.72428,51.3185 22.72422,51.3185 16.59431,-35.99477 c 9.12688,-19.7971 19.23796,-42.89044 22.46908,-51.3185 5.01407,-13.07877 10.8883,-15.32373 40.09602,-15.32373 h 34.2213 V 252.31148 361.28025 H 338.16887 307.5214 l -0.31737,-62.99757 -0.31737,-62.99757 -15.3821,37.45801 c -13.42059,32.68137 -18.0267,37.7205 -36.12117,39.5161 -19.31192,1.91649 -21.94999,-0.6613 -38.33665,-37.45802 l -17.59757,-39.51609 -0.44813,62.99757 -0.44813,62.99757 h -27.2422 -27.24219 z m -95.34768,0 v -34.05274 h 41.430814 c 30.099016,0 40.664356,2.32846 38.628276,8.51318 -1.56629,4.75799 -16.83745,9.4288 -34.620268,10.58898 -25.93055,1.69174 -31.817724,4.45798 -31.817724,14.95058 0,10.4926 5.887174,13.25884 31.817724,14.95058 17.782818,1.16018 33.053978,5.83099 34.620268,10.58898 2.03608,6.18472 -8.52926,8.51318 -38.628276,8.51318 H 48.72057 Z m 333.71687,23.83692 c 0,-7.7186 8.32398,-10.21582 34.05274,-10.21582 30.77033,0 34.05383,-1.47708 34.06377,-15.32374 0.007,-13.70098 -3.35045,-15.32373 -31.73137,-15.32373 -19.3128,0 -32.87363,-3.33356 -34.63129,-8.51319 -2.10201,-6.19419 8.39686,-8.51318 38.54191,-8.51318 h 41.43081 v 34.05274 34.05274 h -40.86329 c -31.78258,0 -40.86328,-2.27016 -40.86328,-10.21582 z M 227.12493,146.14069 c -5.00181,-11.84287 -7.9787,-38.63481 -6.81055,-61.294932 l 2.07517,-40.255992 32.35011,-2.075787 c 22.95263,-1.472781 32.48706,0.505342 32.82159,6.810548 0.25949,4.887454 0.50398,27.876187 0.54349,51.085923 0.0409,23.2098 -3.14416,47.72777 -7.07494,54.48438 -5.44054,9.35177 -7.1963,-0.31669 -7.35396,-40.49695 -0.20227,-51.463085 -0.62521,-52.781744 -16.94703,-52.781744 -16.16838,0 -16.80775,1.801935 -18.72901,52.781744 -1.89871,50.38314 -2.39288,51.82568 -10.87481,31.74281 z"
       style="fill:#000000;stroke-width:6.81055"
       id="path1-2" /></g><g
     id="layer2"
     style="display:none"><path
       d="m 209.48163,495.22711 c 0,-6.28999 5.14636,-11.43635 11.43636,-11.43635 6.29,0 11.43636,5.14636 11.43636,11.43635 0,7.98731 8.04776,11.43637 26.68484,11.43637 18.63699,0 26.68484,-3.44906 26.68484,-11.43637 0,-6.28999 3.43091,-11.43635 7.62424,-11.43635 4.19334,0 7.62423,5.14636 7.62423,11.43635 0,9.60205 16.5427,11.43637 103.13912,11.43637 h 103.13912 l -65.01791,-77.30805 c -35.75982,-42.51946 -65.01792,-81.97491 -65.01792,-87.67876 0,-5.70392 2.57318,-10.26466 5.71818,-10.13498 3.145,0.12961 16.82586,14.71105 30.40181,32.40302 13.57602,17.69198 40.47297,49.32182 59.77092,70.28848 l 35.0872,38.1212 -22.88255,-42.53106 C 472.72506,406.43125 425.58156,317.22765 380.54709,231.5931 335.5126,145.95856 289.3203,59.357477 277.8976,39.146305 L 257.12886,2.398684 241.80535,27.709941 C 233.37737,41.631119 199.8224,104.48483 167.23884,167.38481 134.6552,230.28478 91.869032,310.91111 72.158466,346.55443 52.447823,382.19775 28.811002,426.79956 19.63218,445.66955 c -9.178823,18.87 -12.2463592,28.83381 -6.816604,22.14171 5.429678,-6.69202 33.888526,-40.23045 63.24185,-74.52985 35.244804,-41.18362 54.234724,-58.26794 55.916934,-50.30588 1.40104,6.63119 -22.77673,41.88507 -53.728319,78.34197 -30.951671,36.45698 -58.889935,70.57401 -62.085101,75.81568 -4.531773,7.43431 16.087984,9.5303 93.75558,9.5303 83.41948,0 99.56511,-1.85453 99.56511,-11.43637 z M 156.11194,346.55443 V 224.56661 h 30.49696 30.49697 l -0.004,43.83937 -0.004,43.83937 38.12592,-2.64187 38.12593,-2.64196 V 265.7641 224.56661 h 34.30907 34.30909 v 121.98782 121.98784 h -34.31054 -34.30907 v -53.36968 -53.36967 h -38.1212 -38.1212 v 53.36967 53.36968 H 186.6089 156.11194 Z"
       style="fill:#000000;stroke-width:7.62424"
       id="path1-9" /></g><g
     id="layer3"
     style="display:none"><path
       d="m 277.47454,518.02718 z m 200.7645,-276.08726 c 14.26914,-24.61924 24.8961,-45.81002 23.61544,-47.09069 -1.28067,-1.28065 -20.85256,8.6765 -43.49315,22.12705 -22.64059,13.45053 -55.08658,39.49278 -72.10223,57.87174 -21.68489,23.42224 -32.72957,31.62413 -36.92941,27.42429 -4.19991,-4.1999 2.33095,-14.44177 21.83669,-34.24537 15.30575,-15.53941 26.40488,-29.6772 24.66473,-31.4173 -1.74015,-1.74015 -11.57142,6.51374 -21.84727,18.34197 -10.27587,11.82826 -22.12631,23.55133 -26.3344,26.05131 -4.82588,2.86706 -7.6195,1.81769 -7.56567,-2.842 0.0455,-4.06308 14.3414,-22.73419 31.76544,-41.49137 17.42411,-18.75717 40.40584,-48.22225 51.07061,-65.47801 10.66476,-17.25573 19.39049,-33.48609 19.39049,-36.06753 0,-2.58144 -13.75936,3.0718 -30.5763,12.56269 -16.81695,9.49091 -40.47657,26.49492 -52.57692,37.78662 -12.10038,11.29176 -26.47678,23.0441 -31.94762,26.11636 -7.51953,4.22269 -9.94699,3.52174 -9.94699,-2.87224 0,-4.65201 10.20594,-16.65984 22.67986,-26.68419 17.5686,-14.11851 21.26411,-19.93193 16.39775,-25.79548 -5.00088,-6.02572 -9.66562,-2.89868 -22.87233,15.33268 -9.12462,12.59618 -19.06143,21.37488 -22.08173,19.50819 -3.02036,-1.86667 -5.49154,-5.16247 -5.49154,-7.32399 0,-2.16156 10.18942,-15.07712 22.6431,-28.70125 12.45367,-13.62414 30.18898,-38.70321 39.41178,-55.731268 L 384.71804,68.36211 347.20063,88.984256 c -20.6346,11.342184 -44.51168,28.109564 -53.06023,37.260794 -8.54856,9.15123 -19.63222,16.63864 -24.63033,16.63864 -4.99816,0 -9.08751,-2.43071 -9.08751,-5.40157 0,-2.97085 4.47615,-8.00868 9.94699,-11.19513 5.47083,-3.1865 7.14614,-5.87139 3.72296,-5.96643 -3.42324,-0.095 -10.85359,4.94275 -16.51195,11.19514 -5.65836,6.25238 -15.64648,11.36532 -22.19593,11.36207 -9.80824,-0.005 -6.89667,-4.84043 16.51194,-27.42344 15.63097,-15.07964 37.82436,-44.491623 49.31858,-65.360002 11.49423,-20.868378 19.70515,-37.942465 18.24653,-37.942465 -1.45863,0 -13.42082,5.465612 -26.58262,12.145839 -13.16179,6.680167 -35.44059,19.915002 -49.50848,29.410679 -14.06788,9.495677 -71.00147,62.088969 -126.51906,116.873909 l -100.941099,99.609 21.206349,21.71728 21.206406,21.71729 81.372304,-83.95007 c 55.62814,-57.39041 80.25876,-79.45441 77.85251,-69.74013 -1.93585,7.81548 -23.77462,34.36627 -48.5305,59.00171 -24.75588,24.6355 -45.01074,46.30817 -45.01074,48.16148 0,1.85339 17.90459,-14.39761 39.78795,-36.11329 29.03428,-28.81181 39.78794,-36.56331 39.78794,-28.68006 0,5.94165 -18.54403,29.03116 -41.20894,51.31003 -22.66492,22.27885 -51.44013,48.50183 -63.9449,58.27329 l -22.73597,17.7663 22.63797,20.85149 c 16.84708,15.51764 24.84399,19.48438 31.26195,15.50689 4.74318,-2.93959 12.11322,-12.46073 16.37781,-21.15803 5.73917,-11.70465 8.9646,-13.85416 12.41395,-8.27305 2.56302,4.1471 3.33564,9.68319 1.71689,12.30243 -1.61879,2.61919 3.66562,3.10345 11.74302,1.07616 8.07742,-2.02732 14.58916,-1.49036 14.47054,1.19317 -0.1188,2.68359 -10.40091,11.92519 -22.84948,20.53695 -22.0382,15.24578 -22.39601,16.02056 -13.5993,29.44604 4.9689,7.58352 14.92742,17.64947 22.12995,22.36878 12.71707,8.33256 14.4711,7.08055 60.69418,-43.3235 31.53467,-34.38702 48.18633,-48.8521 49.34011,-42.861 0.95787,4.9736 -7.75835,18.26915 -19.36933,29.54556 -11.61098,11.27648 -19.89562,21.71786 -18.41034,23.20314 1.48524,1.48529 12.64512,-7.48372 24.79966,-19.93115 12.15459,-12.44737 25.41682,-22.63161 29.47166,-22.63161 4.05486,0 7.37242,2.02526 7.37242,4.50054 0,2.47531 -10.96742,15.2643 -24.3721,28.41996 -13.40467,13.15571 -26.95342,23.91943 -30.10839,23.91943 -3.15495,0 -15.70634,10.2102 -27.89191,22.68935 l -22.15557,22.68942 16.73906,18.42918 c 9.20642,10.13597 18.9336,20.07039 21.61594,22.0764 2.68227,2.00599 51.60866,-42.96755 108.72522,-99.94116 82.64905,-82.44221 109.14447,-112.726 129.7923,-148.35059 z m -303.07637,87.6791 c 0,-3.5862 10.44168,-37.477 23.20367,-75.3129 12.76203,-37.83589 25.86131,-75.82644 29.10954,-84.42348 5.274,-13.95851 8.72089,-15.62723 32.21526,-15.59596 l 26.30938,0.034 27.63757,83.8038 c 15.20064,46.09213 28.84221,87.00112 30.3146,90.90887 1.90032,5.04341 -4.92325,7.10498 -23.51666,7.10498 -24.55696,0 -26.40681,-1.06551 -29.60411,-17.05196 -3.26966,-16.34825 -4.64195,-17.05199 -33.25136,-17.05199 -28.6094,0 -29.98169,0.70374 -33.25135,17.05199 -3.11148,15.55741 -5.4156,17.05196 -26.28846,17.05196 -13.41911,0 -22.87808,-2.69585 -22.87808,-6.52038 z m 96.54159,-68.7925 c -0.0454,-0.78156 -3.47308,-12.7484 -7.61251,-26.59297 -7.39641,-24.73786 -7.5841,-24.88491 -10.88365,-8.52597 -1.84656,9.15526 -5.08911,21.1221 -7.20559,26.59294 -3.06158,7.91372 -0.81919,9.94699 10.96993,9.94699 8.14993,0 14.77929,-0.63945 14.73182,-1.42099 z"
       style="fill:#000000;stroke-width:5.68399"
       id="path1-3" /></g></svg>
